<svg xmlns="http://www.w3.org/2000/svg" xmlns:xlink="http://www.w3.org/1999/xlink" id="Layer_1" x="0px" y="0px" width="392.111px" height="86.959px" viewBox="0 0 392.111 86.959" xml:space="preserve">
<path fill="#FFFFFF" d="M6.672,5.006c1.935,0,3.795-0.073,5.584-0.218s3.555-0.217,5.294-0.217c1.209,0,2.647,0.169,4.315,0.507  s3.131,0.846,4.388,1.523c1.935,1.016,3.397,2.406,4.389,4.17c0.99,1.765,1.486,3.469,1.486,5.113c0,1.982-0.628,3.892-1.886,5.729  c-1.257,1.837-2.756,3.264-4.497,4.279c-1.691,1.016-3.458,1.632-5.294,1.85c-1.837,0.218-3.602,0.326-5.294,0.326  c-0.435,0-0.955-0.024-1.56-0.072c-0.604-0.049-1.186-0.121-1.741-0.218c-0.557-0.097-1.027-0.242-1.414-0.435  c-0.387-0.193-0.58-0.435-0.58-0.726c0-0.387,0.096-0.58,0.29-0.58c0.725,0,1.522,0.097,2.393,0.29  c0.871,0.193,1.668,0.29,2.395,0.29c1.499,0,3.058-0.253,4.678-0.761c1.62-0.508,2.962-1.27,4.025-2.285  c1.016-0.967,1.705-2.152,2.066-3.554c0.363-1.402,0.544-2.876,0.544-4.424c0.098-1.354-0.277-2.696-1.124-4.025  c-0.846-1.33-1.995-2.406-3.444-3.228c-1.063-0.628-2.248-1.052-3.555-1.269c-1.306-0.218-2.563-0.327-3.771-0.327  c-0.726,0-1.427,0.037-2.104,0.109c-0.677,0.073-1.378,0.133-2.103,0.181C9.864,7.569,9.73,8.149,9.755,8.778  c0.024,0.628,0.013,1.257-0.037,1.885c-0.145,1.354-0.229,2.768-0.253,4.243c-0.023,1.475-0.035,2.961-0.035,4.46v6.817  c0,2.515,0.023,5.053,0.071,7.616S9.67,38.9,9.864,41.414c0.096,1.402,0.411,2.442,0.942,3.119c0.531,0.677,1.378,1.233,2.539,1.668  v0.435c-1.112-0.096-2.213-0.169-3.301-0.217s-2.188-0.072-3.3-0.072c-0.967,0-2.091,0.024-3.373,0.072  C2.091,46.468,0.967,46.541,0,46.638v-0.436c0.918-0.436,1.825-1.027,2.721-1.777c0.894-0.75,1.39-1.656,1.486-2.72  c0.048-2.563,0.072-5.125,0.072-7.688s0-5.125,0-7.688c0-2.514-0.048-5.149-0.146-7.905c-0.097-2.756-0.192-5.391-0.289-7.906  c-0.049-1.015-0.29-1.982-0.726-2.901C2.684,6.698,1.692,5.876,0.145,5.151V4.716c0.967,0.097,2.03,0.169,3.19,0.218  C4.497,4.982,5.608,5.006,6.672,5.006"></path>
<path fill="#FFFFFF" d="M43.686,10.735c-0.146,1.305-0.229,2.635-0.253,3.989c-0.024,1.354-0.037,2.732-0.037,4.134v6.528  c0.821,0,1.789-0.012,2.9-0.036c1.112-0.024,1.958-0.037,2.539-0.037c4.448,0,7.482-0.822,9.103-2.466s2.381-4.062,2.285-7.253  c0.097-1.305-0.242-2.672-1.016-4.098c-0.773-1.426-1.91-2.551-3.409-3.373c-1.015-0.581-2.212-0.943-3.59-1.088  c-1.377-0.146-2.671-0.218-3.88-0.218c-0.725,0-1.427,0.036-2.104,0.108C45.548,7,44.847,7.061,44.122,7.109  c-0.291,0.532-0.423,1.112-0.398,1.74C43.747,9.478,43.734,10.106,43.686,10.735 M40.64,5.078c1.934,0,3.795-0.085,5.584-0.254  s3.554-0.254,5.295-0.254c1.208,0,2.684,0.169,4.424,0.508c1.741,0.338,3.24,0.822,4.497,1.451c1.982,1.063,3.421,2.478,4.315,4.243  c0.896,1.765,1.342,3.494,1.342,5.186c0,1.982-0.521,3.844-1.56,5.584s-2.405,3.143-4.098,4.207  c-0.436,0.194-0.87,0.399-1.306,0.617c-0.435,0.217-0.918,0.375-1.45,0.471c6.479,8.88,12.094,23.948,20.769,30.063  c1.884,1.328,3.82,1.996,5.803,1.996c0.436,0,0.871-0.024,1.307-0.072c0.435-0.049,0.895-0.073,1.378-0.073  c0.242,0,0.363,0.097,0.363,0.29c0,0.241-0.208,0.484-0.617,0.727c-0.409,0.238-0.909,0.448-1.487,0.615  c-0.578,0.168-1.172,0.303-1.777,0.399c-0.604,0.097-1.1,0.145-1.486,0.145c-3.191,0-5.913-0.715-8.16-2.14  c-11.29-7.159-12.604-21.268-22.981-31.15h-3.046c-0.482-0.048-1.147-0.036-1.994,0.036c-0.846,0.073-1.632,0.133-2.356,0.182  c0,2.272,0.023,4.545,0.073,6.817c0.048,2.273,0.169,4.545,0.361,6.818c0.098,1.402,0.411,2.43,0.943,3.083s1.378,1.221,2.538,1.704  v0.436c-1.112-0.048-2.212-0.107-3.3-0.181c-1.089-0.072-2.188-0.108-3.301-0.108c-0.967,0-2.091,0.036-3.372,0.108  c-1.281,0.073-2.405,0.133-3.373,0.181v-0.507c0.92-0.388,1.826-0.955,2.721-1.705c0.894-0.749,1.39-1.656,1.485-2.72  c0.05-2.563,0.073-5.125,0.073-7.688c0-2.563,0-5.126,0-7.688s-0.048-5.222-0.145-7.979c-0.098-2.755-0.193-5.391-0.291-7.905  c-0.048-0.967-0.29-1.922-0.726-2.865C36.651,6.71,35.66,5.9,34.112,5.223V4.715c0.967,0.097,2.031,0.182,3.191,0.254  C38.464,5.042,39.576,5.078,40.64,5.078z"></path>
<path fill="#E31F24" d="M128.823,21.244c-0.429,0.231-0.846,0.486-1.248,0.761c-0.402,0.276-0.842,0.542-1.319,0.8  c-0.238,0.129-0.413,0.104-0.522-0.074c-0.138-0.223-0.072-0.555,0.195-0.996s0.641-0.895,1.116-1.359  c0.477-0.464,0.985-0.902,1.526-1.313s1.003-0.719,1.385-0.925c2.784-1.5,4.637-1.872,6.519-1.821  c1.764,0.048,3.554,0.427,6.163,1.832c0.381,0.205,0.844,0.514,1.385,0.924c0.542,0.411,1.05,0.848,1.525,1.313  c0.477,0.464,0.85,0.917,1.117,1.359c0.269,0.44,0.333,0.773,0.195,0.996c-0.11,0.178-0.285,0.203-0.523,0.075  c-0.478-0.258-0.917-0.524-1.318-0.8c-0.402-0.275-0.818-0.53-1.248-0.761C140.435,19.458,132.158,19.447,128.823,21.244"></path>
<path fill="#E31F24" d="M100.017,2.796c-3.07,0-5.866,0.48-8.389,1.439c-2.521,0.959-4.715,2.33-6.579,4.112  c-1.863,1.781-3.303,3.893-4.316,6.332s-1.521,5.14-1.521,8.101c0,2.961,0.508,5.825,1.521,8.594s2.454,5.222,4.316,7.36  c1.864,2.138,4.058,3.837,6.579,5.099c2.522,1.261,5.318,1.893,8.389,1.893c3.069,0,5.907-0.453,8.512-1.357  c2.604-0.905,4.866-2.207,6.784-3.907c1.919-1.699,3.427-3.742,4.522-6.126c1.098-2.385,1.646-5.058,1.646-8.018  c0-3.673-0.548-6.963-1.646-9.869c-1.096-2.906-2.604-5.373-4.522-7.401c-1.918-2.028-4.181-3.578-6.784-4.646  C105.925,3.333,103.087,2.796,100.017,2.796 M100.017,0c4.44,0,8.388,0.63,11.842,1.891c3.454,1.261,6.358,2.975,8.717,5.14  c2.358,2.165,4.153,4.715,5.387,7.648c1.234,2.933,1.852,6.099,1.852,9.499c0,3.563-0.728,6.839-2.18,9.827  c-1.452,2.988-3.439,5.565-5.962,7.73c-2.521,2.165-5.469,3.851-8.841,5.058c-3.372,1.206-6.977,1.81-10.813,1.81  c-3.838,0-7.443-0.631-10.814-1.893c-3.372-1.261-6.319-2.988-8.841-5.181c-2.522-2.193-4.509-4.77-5.962-7.73  s-2.18-6.113-2.18-9.457c0-3.399,0.727-6.565,2.18-9.499c1.453-2.933,3.439-5.51,5.962-7.73c2.521-2.22,5.469-3.961,8.841-5.222  C92.574,0.63,96.179,0,100.017,0z"></path>
<path fill="#E31F24" d="M174.325,2.796c-3.07,0-5.866,0.48-8.388,1.439c-2.522,0.959-4.715,2.33-6.579,4.112  c-1.864,1.781-3.303,3.893-4.317,6.332c-1.014,2.439-1.521,5.14-1.521,8.101c0,2.961,0.507,5.825,1.521,8.594  c1.015,2.769,2.453,5.222,4.317,7.36c1.864,2.138,4.057,3.837,6.579,5.099c2.521,1.261,5.317,1.893,8.388,1.893  s5.907-0.453,8.512-1.357c2.604-0.905,4.866-2.207,6.784-3.907c1.919-1.699,3.427-3.742,4.523-6.126  c1.097-2.385,1.646-5.058,1.646-8.018c0-3.673-0.549-6.963-1.646-9.869c-1.097-2.906-2.604-5.373-4.523-7.401  c-1.918-2.028-4.18-3.578-6.784-4.646C180.232,3.331,177.396,2.796,174.325,2.796 M174.325,0c4.441,0,8.388,0.63,11.842,1.891  c3.454,1.261,6.36,2.975,8.717,5.14c2.357,2.165,4.153,4.715,5.388,7.648c1.233,2.933,1.851,6.099,1.851,9.499  c0,3.563-0.727,6.839-2.18,9.827c-1.453,2.988-3.44,5.565-5.962,7.73c-2.522,2.166-5.469,3.851-8.841,5.058  c-3.372,1.206-6.978,1.81-10.814,1.81c-3.838,0-7.443-0.631-10.813-1.893c-3.372-1.261-6.319-2.988-8.842-5.181  c-2.521-2.193-4.509-4.77-5.962-7.73s-2.179-6.113-2.179-9.457c0-3.399,0.727-6.565,2.179-9.499c1.453-2.933,3.44-5.51,5.962-7.73  c2.522-2.22,5.47-3.961,8.842-5.222C166.882,0.63,170.487,0,174.325,0z"></path>
<path fill="#FFFFFF" d="M211.843,5.006c1.936,0,3.797-0.073,5.586-0.218c1.788-0.145,3.554-0.217,5.295-0.217  c1.208,0,2.646,0.169,4.314,0.507c1.668,0.338,3.131,0.846,4.388,1.523c1.935,1.016,3.396,2.406,4.389,4.17  c0.991,1.765,1.485,3.469,1.485,5.113c0,1.982-0.628,3.892-1.885,5.729c-1.258,1.837-2.757,3.264-4.497,4.279  c-1.691,1.016-3.457,1.632-5.294,1.85c-1.838,0.218-3.603,0.326-5.295,0.326c-0.436,0-0.955-0.024-1.56-0.072  c-0.604-0.049-1.186-0.121-1.74-0.218c-0.557-0.097-1.028-0.242-1.415-0.435c-0.387-0.193-0.58-0.435-0.58-0.726  c0-0.387,0.097-0.58,0.29-0.58c0.726,0,1.523,0.097,2.394,0.29c0.871,0.193,1.669,0.29,2.395,0.29c1.499,0,3.059-0.253,4.678-0.761  c1.62-0.508,2.962-1.27,4.025-2.285c1.016-0.967,1.704-2.152,2.066-3.554s0.544-2.876,0.544-4.424  c0.098-1.354-0.277-2.696-1.123-4.025c-0.848-1.33-1.995-2.406-3.445-3.228c-1.063-0.628-2.248-1.052-3.554-1.269  c-1.307-0.218-2.563-0.327-3.771-0.327c-0.726,0-1.427,0.037-2.104,0.109c-0.678,0.073-1.379,0.133-2.104,0.181  c-0.29,0.532-0.423,1.112-0.398,1.741c0.024,0.628,0.013,1.257-0.035,1.885c-0.146,1.354-0.229,2.768-0.254,4.243  s-0.036,2.961-0.036,4.46v6.817c0,2.515,0.022,5.053,0.071,7.616s0.169,5.101,0.362,7.615c0.097,1.402,0.411,2.442,0.943,3.119  c0.53,0.677,1.378,1.232,2.538,1.668v0.435c-1.112-0.096-2.212-0.169-3.301-0.217c-1.088-0.048-2.188-0.072-3.3-0.072  c-0.968,0-2.091,0.024-3.373,0.072c-1.28,0.048-2.404,0.121-3.372,0.217v-0.435c0.919-0.436,1.825-1.027,2.721-1.777  c0.895-0.75,1.39-1.656,1.485-2.72c0.049-2.563,0.073-5.125,0.073-7.688s0-5.125,0-7.688c0-2.514-0.049-5.149-0.146-7.905  c-0.098-2.756-0.193-5.391-0.29-7.906c-0.05-1.015-0.29-1.982-0.727-2.901c-0.435-0.918-1.426-1.741-2.974-2.466V4.716  c0.968,0.097,2.031,0.169,3.19,0.218C209.664,4.983,210.78,5.006,211.843,5.006"></path>
<path fill="#FFFFFF" d="M280.073,3.701c-0.193,0.918-0.713,2.006-1.56,3.264c-0.847,1.257-1.391,2.417-1.633,3.481  c-0.097,0.242-0.217,0.399-0.361,0.471c-0.146,0.073-0.267,0.109-0.362,0.109c-0.194,0-0.291-0.254-0.291-0.761  c0-0.508-0.048-1.003-0.145-1.487c-0.146-0.484-0.544-0.858-1.196-1.125c-0.653-0.266-1.222-0.423-1.705-0.471  c-1.644-0.048-3.372-0.073-5.186-0.073c-1.814,0-3.542,0-5.187,0l-0.362,3.626c-0.098,1.402-0.156,2.829-0.182,4.279  c-0.024,1.45-0.036,2.925-0.036,4.424v6.818c0,2.563,0.036,5.101,0.108,7.615c0.071,2.514,0.206,5.053,0.398,7.615  c0.048,1.064,0.352,2.007,0.906,2.83c0.556,0.822,1.414,1.475,2.574,1.957v0.436c-1.111-0.048-2.212-0.109-3.3-0.182  c-1.089-0.072-2.188-0.108-3.301-0.108c-1.016,0-2.029,0.036-3.046,0.108c-1.016,0.072-1.981,0.133-2.9,0.182v-0.436  c0.919-0.387,1.704-0.967,2.356-1.74s0.979-1.692,0.979-2.756c0.049-2.563,0.085-5.125,0.108-7.688  c0.024-2.563,0.036-5.125,0.036-7.688s-0.012-5.319-0.036-8.268c-0.023-2.95-0.061-5.682-0.108-8.196V7.109  c-1.981,0-3.952,0.037-5.911,0.109c-1.958,0.072-3.88,0.302-5.766,0.689c-0.629,0.097-1.343,0.302-2.141,0.617  c-0.798,0.314-1.511,0.689-2.139,1.124c-0.437,0.338-0.835,0.665-1.197,0.979s-0.713,0.471-1.052,0.471  c-0.29,0-0.436-0.096-0.436-0.29c0.049-0.435,0.374-0.979,0.979-1.632c0.604-0.652,1.052-1.269,1.342-1.85  c0.29-0.532,0.616-1.1,0.979-1.704c0.361-0.604,0.592-1.172,0.688-1.704h0.798c0.29,0.29,0.689,0.507,1.197,0.653  c0.507,0.145,1.245,0.241,2.212,0.29c2.417,0.049,4.835,0.073,7.253,0.073c2.417,0,4.835,0,7.252,0c2.321,0,4.775-0.036,7.362-0.109  c2.587-0.073,5.112-0.157,7.579-0.253c0.87,0,1.606-0.109,2.212-0.327c0.604-0.218,1.173-0.399,1.704-0.544H280.073z"></path>
<path fill="#FFFFFF" d="M290.165,46.347c-1.016,0-2.043,0.024-3.083,0.072c-1.039,0.048-2.018,0.121-2.937,0.217v-0.435  c0.919-0.388,1.704-0.968,2.356-1.741c0.652-0.773,1.003-1.692,1.052-2.756c0.049-2.563,0.072-5.125,0.072-7.688s0-5.125,0-7.688  c0-2.514-0.037-5.149-0.108-7.905c-0.072-2.756-0.182-5.391-0.326-7.906c-0.048-1.015-0.278-2.019-0.688-3.01  c-0.411-0.991-1.317-1.922-2.721-2.792v-0.29c0.968,0.097,1.995,0.169,3.083,0.218c1.088,0.049,2.14,0.072,3.154,0.072  c1.016,0,2.043-0.036,3.083-0.108c1.039-0.073,2.066-0.133,3.082-0.182v0.29c-1.208,0.532-2.007,1.39-2.395,2.575  c-0.387,1.185-0.628,2.309-0.725,3.373c-0.146,1.354-0.229,2.768-0.254,4.243c-0.024,1.475-0.036,2.961-0.036,4.46v6.817  c0,2.515,0.048,5.053,0.145,7.616c0.098,2.563,0.193,5.101,0.29,7.615c0.098,1.064,0.411,2.019,0.943,2.864  c0.531,0.847,1.378,1.488,2.538,1.923v0.435c-1.112-0.096-2.212-0.169-3.3-0.217S291.228,46.347,290.165,46.347"></path>
<path fill="#FFFFFF" d="M345.75,12.694c-0.146,0-0.339-0.169-0.58-0.507c-0.241-0.339-0.58-0.75-1.016-1.233  c-0.435-0.483-0.979-1.003-1.632-1.559c-0.653-0.556-1.438-1.027-2.357-1.415c-1.4-0.628-2.913-1.076-4.533-1.341  c-1.618-0.266-3.274-0.399-4.968-0.399c-3.143-0.048-5.982,0.387-8.521,1.306c-2.539,0.919-4.702,2.188-6.492,3.808  c-1.788,1.62-3.154,3.542-4.098,5.766c-0.942,2.224-1.414,4.642-1.414,7.253s0.531,5.125,1.596,7.542  c1.064,2.418,2.502,4.545,4.315,6.383c1.813,1.838,3.929,3.3,6.346,4.388c2.418,1.088,4.956,1.631,7.616,1.631  c1.159,0,2.454-0.084,3.88-0.254c1.427-0.168,2.865-0.422,4.314-0.761c1.45-0.339,2.842-0.786,4.17-1.342  c1.33-0.556,2.454-1.221,3.373-1.995c0.58-0.483,1.076-0.991,1.486-1.523c0.411-0.532,0.665-0.798,0.762-0.798  c0.29,0,0.437,0.097,0.437,0.29c0,0.338-0.278,0.991-0.834,1.958c-0.558,0.967-1.027,1.813-1.414,2.538  c-0.437,0.871-1.161,1.499-2.176,1.886c-2.418,1.063-4.86,1.801-7.326,2.211c-2.466,0.412-5.197,0.617-8.195,0.617  c-3.385,0-6.563-0.556-9.537-1.668c-2.974-1.111-5.573-2.635-7.797-4.568c-2.224-1.934-3.977-4.207-5.259-6.817  c-1.28-2.611-1.921-5.391-1.921-8.341c0-2.998,0.616-5.826,1.849-8.486c1.233-2.659,2.975-4.992,5.223-6.999  c2.248-2.007,4.933-3.603,8.051-4.787c3.119-1.185,6.588-1.777,10.407-1.777c1.499,0,3.132,0.109,4.896,0.326  c1.765,0.218,3.469,0.447,5.113,0.689c0.772,0.145,1.522,0.291,2.248,0.436s1.475,0.217,2.249,0.217  c0.289,0,0.543-0.048,0.761-0.145s0.447-0.145,0.688-0.145c0.193,0,0.326,0.23,0.398,0.689c0.073,0.459,0.109,1.027,0.109,1.705  c0,0.677,0.035,1.426,0.107,2.249c0.072,0.822,0.109,1.523,0.109,2.103c0,0.193-0.024,0.387-0.073,0.581  C346.064,12.597,345.943,12.694,345.75,12.694"></path>
<path fill="#FFFFFF" d="M374.347,27.78v-0.29l-6.165-14.288h-0.146L361.22,27.49v0.29c1.063,0.048,2.14,0.084,3.227,0.109  c1.088,0.024,2.188,0.036,3.301,0.036c1.063,0,2.151-0.012,3.265-0.036C372.124,27.864,373.235,27.828,374.347,27.78   M372.679,10.518l14.069,30.679c1.112,2.514,2.877,4.206,5.295,5.077v0.361c-2.176-0.289-4.328-0.435-6.455-0.435  c-2.32,0-4.594,0.146-6.817,0.435v-0.289c0-0.484,0.303-0.992,0.907-1.523c0.604-0.531,0.905-1.136,0.905-1.813  c0-0.726-0.169-1.378-0.508-1.958l-4.496-10.879c-1.258-0.097-2.539-0.182-3.845-0.254c-1.305-0.073-2.61-0.109-3.916-0.109  c-1.354,0-2.708,0.036-4.063,0.109c-1.354,0.072-2.684,0.157-3.988,0.254l-5.223,11.822c-0.192,0.435-0.361,0.834-0.508,1.197  c-0.145,0.363-0.218,0.737-0.218,1.124c0,0.629,0.363,1.307,1.088,2.031v0.291c-0.822-0.097-1.619-0.17-2.394-0.218  c-0.773-0.048-1.571-0.071-2.394-0.071c-0.871,0-1.741,0.023-2.61,0.071c-0.87,0.048-1.718,0.121-2.538,0.218l0.361-0.291  c1.354-0.387,2.574-1.039,3.662-1.957c1.088-0.92,1.972-2.056,2.647-3.41l14.216-29.736c0.097-0.387,0.145-0.677,0.145-0.87  c0.05-0.967-0.374-1.971-1.269-3.01c-0.896-1.039-1.946-1.922-3.155-2.647l-0.146-0.362c0.919,0.048,2.056,0.097,3.409,0.145  c1.353,0.048,2.537,0.073,3.554,0.073h1.596L372.679,10.518z"></path>
<polygon fill="#FFFFFF" points="0.008,58.771 67.587,58.76 68.668,59.687 0.009,59.717 "></polygon>
<polygon fill="#FFFFFF" points="392.111,58.771 92.402,58.76 91.823,59.715 392.11,59.717 "></polygon>
<path fill="#FFFFFF" d="M320.333,78.265c-0.15-0.602-0.371-1.082-0.657-1.438c-0.287-0.359-0.668-0.651-1.14-0.871  c-0.473-0.22-0.968-0.33-1.49-0.33c-0.855,0-1.596,0.278-2.212,0.83c-0.45,0.401-0.791,1.006-1.021,1.812h6.52V78.265z   M320.333,80.624l0.948,0.5c-0.311,0.611-0.671,1.104-1.078,1.48c-0.409,0.377-0.868,0.662-1.376,0.856  c-0.511,0.195-1.088,0.294-1.73,0.294c-1.43,0-2.544-0.467-3.351-1.404c-0.805-0.937-1.206-1.994-1.206-3.176  c0-1.109,0.341-2.103,1.022-2.971c0.861-1.104,2.02-1.659,3.468-1.659c1.492,0,2.685,0.568,3.574,1.7  c0.635,0.8,0.957,1.798,0.968,2.992h-7.873c0.021,1.021,0.347,1.856,0.973,2.509c0.631,0.651,1.404,0.979,2.328,0.979  c0.445,0,0.879-0.078,1.299-0.233c0.422-0.156,0.781-0.362,1.075-0.621C319.667,81.616,319.989,81.198,320.333,80.624z   M299.708,74.771h1.126v1.571c0.451-0.602,0.951-1.053,1.498-1.35c0.546-0.298,1.144-0.447,1.788-0.447  c0.654,0,1.234,0.167,1.742,0.5c0.506,0.332,0.882,0.78,1.121,1.345c0.242,0.563,0.363,1.441,0.363,2.631v4.511h-1.118v-4.181  c0-1.009-0.044-1.682-0.13-2.02c-0.136-0.58-0.386-1.016-0.756-1.309c-0.37-0.291-0.854-0.439-1.45-0.439  c-0.683,0-1.292,0.227-1.83,0.677c-0.538,0.453-0.896,1.011-1.066,1.677c-0.106,0.434-0.162,1.229-0.162,2.381v3.214h-1.126V74.771z   M288.792,74.771h6.434l-4.959,7.763h4.8v0.998h-6.74l4.96-7.769h-4.493L288.792,74.771L288.792,74.771z M284.149,76.592  l-0.895,0.556c-0.773-1.024-1.826-1.539-3.165-1.539c-1.065,0-1.954,0.344-2.659,1.031c-0.706,0.687-1.059,1.521-1.059,2.502  c0,0.642,0.162,1.239,0.486,1.807c0.324,0.563,0.77,1,1.335,1.311s1.201,0.467,1.904,0.467c1.288,0,2.342-0.511,3.156-1.539  l0.895,0.59c-0.421,0.629-0.981,1.115-1.688,1.461c-0.706,0.347-1.509,0.52-2.409,0.52c-1.386,0-2.533-0.439-3.445-1.318  c-0.912-0.881-1.368-1.951-1.368-3.213c0-0.849,0.211-1.637,0.64-2.361c0.428-0.729,1.013-1.295,1.759-1.704  c0.745-0.406,1.58-0.612,2.505-0.612c0.578,0,1.137,0.092,1.679,0.268c0.538,0.178,0.994,0.408,1.371,0.691  C283.566,75.79,283.885,76.149,284.149,76.592z M262.669,74.771h1.192l3.012,6.748l2.921-6.748h1.201l-5.227,11.965h-1.189  l1.689-3.864L262.669,74.771z M255.812,71.521h1.138v3.25h1.786v0.967h-1.786v7.794h-1.138v-7.794h-1.536v-0.967h1.536V71.521  L255.812,71.521z M244.915,75.633c-0.978,0-1.8,0.341-2.467,1.021c-0.671,0.683-1.003,1.531-1.003,2.546  c0,0.665,0.147,1.264,0.445,1.795c0.299,0.532,0.725,0.953,1.279,1.264c0.556,0.312,1.144,0.468,1.76,0.468  c0.605,0,1.179-0.156,1.712-0.471c0.532-0.316,0.958-0.753,1.273-1.316c0.318-0.563,0.477-1.152,0.477-1.771  c0-0.62-0.157-1.211-0.471-1.77c-0.313-0.562-0.735-0.992-1.27-1.303C246.122,75.787,245.542,75.633,244.915,75.633z   M240.406,74.771h1.118v1.609c0.445-0.609,0.959-1.068,1.539-1.376c0.58-0.306,1.226-0.459,1.939-0.459  c1.244,0,2.312,0.45,3.195,1.347c0.885,0.896,1.327,1.974,1.327,3.233c0,1.289-0.438,2.383-1.316,3.281  c-0.876,0.897-1.935,1.349-3.177,1.349c-0.694,0-1.338-0.146-1.923-0.434c-0.585-0.291-1.113-0.723-1.586-1.297v4.709h-1.118  L240.406,74.771L240.406,74.771z M229.176,75.649c-0.935,0-1.736,0.347-2.406,1.039c-0.671,0.692-1.006,1.527-1.006,2.512  c0,0.632,0.149,1.223,0.459,1.77c0.305,0.551,0.717,0.971,1.238,1.271c0.52,0.297,1.092,0.444,1.715,0.444  c0.62,0,1.192-0.147,1.715-0.444c0.52-0.3,0.935-0.72,1.238-1.271c0.307-0.547,0.459-1.138,0.459-1.77  c0-0.983-0.338-1.818-1.011-2.512C230.904,75.996,230.105,75.649,229.176,75.649z M229.176,74.545c1.347,0,2.463,0.488,3.35,1.468  c0.806,0.891,1.207,1.944,1.207,3.162c0,1.223-0.426,2.294-1.275,3.209c-0.852,0.915-1.944,1.371-3.279,1.371  c-1.343,0-2.438-0.456-3.29-1.371c-0.853-0.915-1.274-1.986-1.274-3.209c0-1.212,0.401-2.265,1.206-3.154  C226.703,75.037,227.824,74.545,229.176,74.545z M201.555,74.771h1.191l3.012,6.748l2.922-6.748h1.199l-5.226,11.965h-1.19  l1.69-3.864L201.555,74.771z M189.248,74.771h1.126v1.571c0.451-0.602,0.951-1.053,1.498-1.35c0.547-0.298,1.144-0.447,1.789-0.447  c0.654,0,1.234,0.167,1.742,0.5c0.505,0.332,0.882,0.78,1.121,1.345c0.242,0.563,0.363,1.441,0.363,2.631v4.511h-1.118v-4.181  c0-1.009-0.044-1.682-0.13-2.02c-0.136-0.58-0.385-1.016-0.756-1.309c-0.37-0.291-0.854-0.439-1.45-0.439  c-0.683,0-1.292,0.227-1.83,0.677c-0.539,0.453-0.896,1.011-1.066,1.677c-0.106,0.434-0.162,1.229-0.162,2.381v3.214h-1.126  L189.248,74.771L189.248,74.771z M179.404,75.649c-0.935,0-1.737,0.347-2.407,1.039s-1.006,1.527-1.006,2.512  c0,0.632,0.151,1.223,0.459,1.77c0.305,0.551,0.717,0.971,1.239,1.271c0.52,0.297,1.091,0.444,1.715,0.444  c0.621,0,1.192-0.147,1.714-0.444c0.521-0.3,0.935-0.72,1.239-1.271c0.305-0.547,0.459-1.138,0.459-1.77  c0-0.983-0.338-1.818-1.011-2.512C181.132,75.996,180.333,75.649,179.404,75.649z M179.404,74.545c1.346,0,2.462,0.488,3.35,1.468  c0.806,0.891,1.206,1.944,1.206,3.162c0,1.223-0.426,2.294-1.274,3.209c-0.853,0.915-1.945,1.371-3.281,1.371  c-1.341,0-2.438-0.456-3.29-1.371s-1.274-1.986-1.274-3.209c0-1.212,0.401-2.265,1.206-3.154  C176.931,75.037,178.052,74.545,179.404,74.545z M168.595,71.39h1.126v12.142h-1.126V71.39z M158.522,75.633  c-0.626,0-1.207,0.153-1.739,0.462c-0.53,0.311-0.954,0.741-1.267,1.303c-0.313,0.559-0.471,1.148-0.471,1.77  c0,0.619,0.157,1.209,0.474,1.771c0.318,0.563,0.742,1,1.277,1.316c0.533,0.313,1.107,0.471,1.718,0.471  c0.618,0,1.203-0.156,1.756-0.468c0.552-0.311,0.978-0.731,1.274-1.264c0.301-0.531,0.448-1.13,0.448-1.795  c0-1.015-0.335-1.863-1.003-2.546C160.322,75.974,159.5,75.633,158.522,75.633z M163.031,74.771v8.761h-1.11v-1.507  c-0.472,0.574-1.003,1.007-1.591,1.297c-0.588,0.289-1.23,0.435-1.929,0.435c-1.239,0-2.297-0.45-3.176-1.349  c-0.876-0.898-1.316-1.992-1.316-3.281c0-1.261,0.445-2.338,1.33-3.234c0.885-0.896,1.951-1.346,3.196-1.346  c0.72,0,1.371,0.153,1.951,0.459c0.583,0.309,1.094,0.768,1.535,1.376v-1.61H163.031L163.031,74.771z M149.114,75.729l-0.726,0.75  c-0.603-0.586-1.19-0.879-1.765-0.879c-0.365,0-0.676,0.121-0.937,0.362c-0.262,0.241-0.391,0.524-0.391,0.847  c0,0.282,0.107,0.555,0.322,0.813c0.214,0.261,0.665,0.57,1.353,0.926c0.838,0.436,1.406,0.852,1.707,1.256  c0.297,0.407,0.444,0.866,0.444,1.377c0,0.717-0.253,1.327-0.758,1.827c-0.503,0.497-1.135,0.747-1.891,0.747  c-0.505,0-0.986-0.109-1.445-0.329c-0.458-0.22-0.838-0.524-1.14-0.909l0.709-0.806c0.573,0.647,1.185,0.974,1.827,0.974  c0.451,0,0.836-0.144,1.151-0.436c0.315-0.288,0.476-0.629,0.476-1.021c0-0.32-0.104-0.609-0.313-0.859  c-0.211-0.247-0.682-0.561-1.418-0.936c-0.789-0.408-1.324-0.811-1.61-1.209c-0.282-0.396-0.426-0.849-0.426-1.359  c0-0.665,0.227-1.217,0.679-1.656c0.453-0.439,1.027-0.662,1.721-0.662C147.487,74.545,148.298,74.94,149.114,75.729z   M127.679,78.265c-0.151-0.602-0.371-1.082-0.657-1.438c-0.289-0.359-0.668-0.651-1.142-0.871c-0.473-0.22-0.967-0.33-1.488-0.33  c-0.857,0-1.598,0.278-2.212,0.83c-0.451,0.401-0.792,1.006-1.022,1.812h6.521V78.265z M127.679,80.624l0.947,0.5  c-0.311,0.611-0.67,1.104-1.077,1.48c-0.408,0.377-0.867,0.662-1.376,0.856c-0.511,0.195-1.088,0.294-1.73,0.294  c-1.429,0-2.545-0.467-3.351-1.404c-0.805-0.937-1.205-1.994-1.205-3.176c0-1.109,0.341-2.103,1.021-2.971  c0.862-1.104,2.02-1.659,3.467-1.659c1.492,0,2.686,0.568,3.575,1.7c0.635,0.8,0.957,1.798,0.968,2.992h-7.873  c0.02,1.021,0.347,1.856,0.974,2.509c0.629,0.651,1.403,0.979,2.327,0.979c0.444,0,0.879-0.078,1.3-0.233  c0.421-0.156,0.779-0.362,1.075-0.621C127.014,81.616,127.335,81.198,127.679,80.624z M113.621,74.771h1.145v10.078  c0,0.736-0.133,1.272-0.399,1.607c-0.264,0.335-0.629,0.503-1.091,0.503c-0.379,0-0.812-0.091-1.286-0.274V85.67  c0.299,0.157,0.571,0.233,0.811,0.233c0.309,0,0.536-0.127,0.685-0.377c0.093-0.161,0.137-0.496,0.137-1.008V74.771L113.621,74.771z   M114.176,71.166c0.259,0,0.479,0.09,0.657,0.274c0.183,0.182,0.271,0.4,0.271,0.658c0,0.254-0.088,0.471-0.271,0.651  c-0.179,0.185-0.397,0.274-0.657,0.274c-0.255,0-0.476-0.09-0.653-0.274c-0.182-0.181-0.272-0.397-0.272-0.651  c0-0.258,0.091-0.478,0.272-0.658C113.701,71.255,113.921,71.166,114.176,71.166z M103.914,75.649c-0.934,0-1.736,0.347-2.407,1.039  c-0.67,0.692-1.006,1.527-1.006,2.512c0,0.632,0.151,1.223,0.459,1.77c0.306,0.551,0.718,0.971,1.239,1.271  c0.519,0.297,1.091,0.444,1.714,0.444c0.621,0,1.193-0.147,1.715-0.444c0.521-0.3,0.935-0.72,1.239-1.271  c0.305-0.547,0.458-1.138,0.458-1.77c0-0.983-0.338-1.818-1.011-2.512C105.643,75.996,104.843,75.649,103.914,75.649z   M103.914,74.545c1.348,0,2.462,0.488,3.351,1.468c0.805,0.891,1.207,1.944,1.207,3.162c0,1.223-0.427,2.294-1.275,3.209  c-0.852,0.915-1.946,1.371-3.281,1.371c-1.341,0-2.438-0.456-3.289-1.371s-1.274-1.986-1.274-3.209c0-1.212,0.4-2.265,1.206-3.154  C101.441,75.037,102.562,74.545,103.914,74.545z M81.688,74.771h1.16l2.682,6.36l2.808-6.36h0.204l2.8,6.36l2.729-6.36h1.176  l-3.8,8.761H91.23l-2.786-6.271l-2.808,6.271h-0.209L81.688,74.771z M75.072,71.521h1.137v3.25h1.786v0.967h-1.786v7.794h-1.137  v-7.794h-1.536v-0.967h1.536V71.521z"></path>
</svg>