<svg width="214" height="34" viewBox="0 0 214 34" fill="none" xmlns="http://www.w3.org/2000/svg">
<path fill-rule="evenodd" clip-rule="evenodd" d="M206.133 1.14853H213.657C212.823 1.79386 212.323 2.58586 212.323 3.66986V29.5765C212.323 30.6609 212.843 31.4319 213.657 32.0781H206.133C206.946 31.4319 207.446 30.6401 207.446 29.5765V3.66986C207.446 2.58586 206.966 1.79386 206.133 1.14853Z" fill="black"/>
<path fill-rule="evenodd" clip-rule="evenodd" d="M31.7427 12.2746C30.5129 9.62798 29.1577 7.02265 26.8864 5.12532C24.4687 3.08265 21.4047 1.85331 18.2369 1.85331C9.81613 1.85331 6.04373 9.46132 6.04373 16.9432C6.04373 24.1755 9.64947 31.491 17.7781 31.491C21.0921 31.491 24.3229 30.0531 26.3656 27.4479V21.612C26.3656 20.0276 25.8443 19.0067 24.614 18.0687H33.2224C32.3052 19.1109 31.7427 20.1739 31.7427 21.612V27.4479C27.8036 31.1161 22.9057 33.3672 17.4656 33.3672C7.8572 33.3672 0 26.3014 0 16.464C0 6.68931 7.75307 -0.00134277 17.2364 -0.00134277C23.1349 -0.00134277 27.9072 2.16665 31.7427 6.52265V12.2746Z" fill="black"/>
<path fill-rule="evenodd" clip-rule="evenodd" d="M52.8359 1.14846H60.9433C59.8386 1.96046 59.4631 2.87779 59.4631 4.23246V23.1365C59.4631 28.3261 65.5495 30.8693 70.0094 30.8693C74.3865 30.8693 80.0974 28.3057 80.0974 23.2411V4.23246C80.0974 2.96046 79.7845 2.08579 78.9302 1.14846H83.3485C82.4526 2.06446 82.1193 2.98179 82.1193 4.23246V23.2411C82.1193 30.077 74.0531 32.7031 68.4673 32.7031C62.7146 32.7031 54.3157 30.1609 54.3157 23.1365V4.23246C54.3157 2.94046 53.7943 1.98179 52.8359 1.14846Z" fill="black"/>
<path fill-rule="evenodd" clip-rule="evenodd" d="M134.038 12.3839C132.954 9.6532 131.684 7.25719 129.453 5.27719C127.057 3.15052 124.138 1.8172 120.908 1.8172C112.572 1.8172 108.298 9.11186 108.298 16.6776C108.298 24.2853 112.738 31.476 120.97 31.476C127.098 31.476 131.474 27.1609 134.038 21.9713V27.5989C130.224 31.3713 125.305 33.2891 119.929 33.2891C109.966 33.2891 102.504 26.8484 102.504 16.5728C102.504 6.59053 109.674 0.0251884 119.449 0.0251884C124.868 0.0251884 130.12 1.89986 134.038 5.63053V12.3839Z" fill="black"/>
<path fill-rule="evenodd" clip-rule="evenodd" d="M186.311 12.3839C185.228 9.6532 183.956 7.25719 181.727 5.27719C179.329 3.15052 176.412 1.8172 173.181 1.8172C164.843 1.8172 160.592 9.11186 160.592 16.6776C160.592 24.2853 165.011 31.476 173.243 31.476C179.371 31.476 183.769 27.1609 186.311 21.9713V27.5989C182.497 31.3713 177.599 33.2891 172.201 33.2891C162.239 33.2891 154.777 26.8484 154.777 16.5728C154.777 6.59053 161.947 0.0251884 171.721 0.0251884C177.14 0.0251884 182.393 1.89986 186.311 5.63053V12.3839Z" fill="black"/>
</svg>
