<svg width="250" height="124" viewBox="0 0 250 124" fill="none" xmlns="http://www.w3.org/2000/svg">
<path fill-rule="evenodd" clip-rule="evenodd" d="M244.676 26.3838C242.022 26.3838 239.879 28.5265 239.879 31.1558C239.879 33.8118 242.022 35.9531 244.676 35.9531C247.319 35.9531 249.448 33.8118 249.448 31.1558C249.448 28.5265 247.319 26.3838 244.676 26.3838ZM244.676 35.3771C242.347 35.3771 240.468 33.4985 240.468 31.1558C240.468 28.8385 242.347 26.9598 244.676 26.9598C246.994 26.9598 248.872 28.8385 248.872 31.1558C248.872 33.4985 246.994 35.3771 244.676 35.3771Z" fill="black"/>
<path fill-rule="evenodd" clip-rule="evenodd" d="M247.132 29.9039C247.132 29.4533 246.93 28.9759 246.53 28.7519C246.129 28.5133 245.678 28.4879 245.228 28.4879H242.898V33.8359H243.549V31.3693H244.752L246.28 33.8359H247.057L245.441 31.3693C246.392 31.3439 247.132 30.9559 247.132 29.9039ZM244.552 30.8559H243.549V28.9639H245.077C245.741 28.9639 246.468 29.0639 246.468 29.8919C246.468 30.9813 245.302 30.8559 244.552 30.8559Z" fill="black"/>
<path fill-rule="evenodd" clip-rule="evenodd" d="M84.4807 110.068L53.3006 94.8432C52.6156 94.4885 52.2615 93.5817 52.275 92.9891L52.3578 84.5839C52.3692 83.9911 52.4875 83.3839 53.2635 82.8255C56.5974 80.7005 66.9198 74.9875 77.5843 59.4229C91.7875 38.6939 77.5843 21.2779 55.3864 26.0179C35.673 30.2285 15.6015 40.9045 6.89635 46.7072C-0.862507 51.8792 0.215093 58.1296 0 63.7333C0.43072 66.1036 1.29271 65.8885 3.23228 63.5177C17.6719 50.1565 39.6542 40.0272 43.7484 38.3032C47.8432 36.5792 57.5416 30.7592 68.9635 33.3459C79.9359 35.8312 77.2692 50.7485 73.9208 57.052C70.2567 63.9484 59.8047 73.9703 55.063 76.4484C53.2615 77.3901 52.5848 76.4484 52.5848 74.9401L53.3391 42.5045C53.3391 40.3499 52.3692 39.3805 50.214 40.1339L46.7656 41.8592C44.3954 43.2592 44.5031 43.7979 44.2875 45.5219L43.7651 82.914C43.7484 83.7219 43.3719 84.3681 42.9276 84.5604L31.6802 90.8875C29.0938 92.1807 29.7406 94.1203 31.6802 94.7667L40.7318 99.0771C42.887 99.9391 43.5334 100.585 43.5334 102.741L43.2099 120.844C51.2916 119.228 51.8302 115.348 52.0463 112.762V107.267C52.2615 105.973 53.0156 105.542 54.0932 105.758L80.3859 118.473C82.7563 119.551 84.0495 119.12 85.7734 116.103C87.4979 113.085 87.713 111.577 84.4807 110.068Z" fill="black"/>
<path fill-rule="evenodd" clip-rule="evenodd" d="M130.429 64.3949C126.774 66.5053 125.084 70.4533 126.523 72.9454C127.963 75.4381 132.309 75.8558 135.965 73.7449C139.62 71.634 141.202 67.7944 139.762 65.3022C138.324 62.8096 134.085 62.284 130.429 64.3949Z" fill="black"/>
<path fill-rule="evenodd" clip-rule="evenodd" d="M116.945 67.0796C115.951 68.29 114.036 71.9828 112.958 74.2452C111.881 76.5083 109.618 81.6265 107.355 81.6265C104.962 81.6265 104.661 75.7 104.661 73.5448C104.661 71.39 103.368 71.0667 102.722 71.1744C102.075 71.2817 100.243 71.9285 99.7046 74.1911C99.1655 76.4547 96.2562 86.2599 93.0234 86.2599C90.976 86.2599 89.4676 80.3333 89.3598 78.502C89.252 76.6697 88.39 75.1609 86.5583 75.1609C85.265 75.1609 83.6488 75.8077 83.002 76.5619C82.3556 77.3167 82.2479 78.502 78.7994 77.7473C75.6744 77.6395 72.6572 79.2557 68.9942 85.3979C66.7879 89.0963 64.9968 95.9869 68.3474 98.7599C71.4723 101.346 76.9676 96.7124 78.5843 94.7728C80.2004 92.8328 81.6015 91.4323 82.2479 90.3547C82.8942 89.2771 83.5411 89.3848 83.864 90.4624C84.1874 91.54 86.0192 95.7427 88.39 95.6348C90.7608 95.5271 93.778 93.6952 97.3338 87.4452C97.9802 86.1525 98.9499 86.2599 99.1655 87.3375C99.3812 88.4151 100.782 91.9713 103.153 91.9713C105.415 91.9713 107.933 88.376 109.187 86.2599C110.049 84.8052 111.342 85.5057 111.342 86.9067C111.342 88.3072 110.695 121.389 110.695 121.389C110.695 122.897 111.288 123.328 112.365 123.328H117.053C117.915 123.328 118.669 122.574 118.669 121.389L119.639 67.7801C119.639 66.4869 118.184 65.5708 116.945 67.0796ZM80.3083 88.2C79.3384 89.8161 76.752 94.1265 74.4895 93.3719C73.304 92.7255 74.8843 88.4161 75.6744 86.9067C76.8598 84.6437 80.3343 81.0411 81.9244 81.95C83.4332 82.8119 81.278 86.5833 80.3083 88.2Z" fill="black"/>
<path fill-rule="evenodd" clip-rule="evenodd" d="M244.495 55.151C244.064 55.5283 243.363 56.1737 241.802 55.4737C239.107 54.3963 238.891 49.3323 237.491 44.699C236.232 40.535 233.2 40.7977 232.103 42.7044L228.816 47.9844C228.223 49.0617 226.931 51.5404 225.638 51.5404C224.13 51.5404 224.803 49.3843 224.883 47.231C224.938 45.7763 224.022 43.9443 222.512 43.9443C220.788 43.9443 218.956 46.5844 217.556 49.6017C216.576 51.711 214.054 59.7841 210.875 59.7841C208.827 59.7841 208.612 53.8577 208.504 52.0257C208.396 50.1937 207.75 47.931 205.918 47.931C204.679 47.931 203.871 48.5777 203.224 49.3323C202.578 50.0857 202.47 50.7323 200.207 50.4097C197.082 50.3017 191.91 53.211 188.246 59.3533C186.04 63.0513 183.387 70.8038 186.738 73.5767C189.863 76.1633 195.466 70.1284 197.082 68.1888C198.699 66.2492 200.099 64.8486 200.746 63.771C201.392 62.6934 202.039 62.8013 202.362 63.8789C202.686 64.9565 204.518 69.1585 206.888 69.0513C209.259 68.9434 211.199 68.4043 214.754 62.1543C215.402 60.8617 216.586 60.7002 216.802 61.7773C217.018 62.8554 217.232 65.7106 219.496 65.7106C223.375 65.7106 227.77 56.2723 228.87 54.0737C229.84 52.1337 231.403 52.6724 231.942 54.127C232.712 56.2097 233.396 62.909 237.599 62.909C241.802 62.909 244.656 58.4371 245.518 57.0361C246.488 55.635 245.984 53.8483 244.495 55.151ZM198.806 61.6158C197.836 63.2319 195.682 66.7882 193.418 66.0341C192.234 65.3871 193.706 62.2633 194.496 60.7538C195.682 58.4909 199.155 54.835 200.746 55.743C202.255 56.6057 199.776 59.9997 198.806 61.6158Z" fill="black"/>
<path fill-rule="evenodd" clip-rule="evenodd" d="M177.99 55.9653C177.99 55.9653 168.832 49.2853 166.245 46.2679C164.509 44.2426 165.706 42.7119 166.784 41.8506C173.249 37.5399 183.378 30.8586 187.365 20.5146C191.208 10.5439 185.21 1.87194 180.9 0.471938C174.994 -1.44806 162.473 2.4106 156.224 14.0493C152.176 21.5866 150.297 24.0693 149.758 44.5439C149.656 48.4213 149.542 52.8413 149.542 57.6901C149.542 62.5386 149.004 75.6849 148.465 78.163C146.417 83.9823 152.56 80.5339 155.361 78.2714C158.164 76.0083 157.948 72.6141 157.948 71.1594C157.948 69.3277 158.056 37.0013 159.025 29.7813C159.629 25.2906 160.318 16.9573 165.06 9.7386C169.801 2.5186 174.65 5.42793 175.944 6.61326C177.236 7.7986 179.068 10.8159 178.098 16.9573C176.593 26.4906 165.598 36.8933 162.797 40.1253C159.996 43.3586 160.641 46.1599 162.258 48.4226C163.408 50.0333 166.245 53.1639 169.154 56.0733C172.064 58.9829 171.741 61.5687 171.31 63.5083C169.801 69.3277 154.069 85.0599 154.069 85.0599C150.728 88.6157 154.177 94.4343 155.361 96.3739C156.546 98.3135 158.056 97.6677 159.025 96.051C162.905 88.8313 179.606 71.375 179.606 71.375C184.456 65.2329 182.408 59.3062 177.99 55.9653Z" fill="black"/>
</svg>
