<svg xmlns="http://www.w3.org/2000/svg" id="Layer_1" data-name="Layer 1" width="158" height="27" viewBox="0 0 600 101.9" role="presentation">
    <g id="Wordmark">
        <g>
        <path d="m71.35,1.64l-28.23,98.77h-15.19L0,1.64h20.82l19.71,76.17h.82L62.02,1.64h9.33Z"></path>
        <path d="m147.56,100.41h-50.98V1.64h50.98v9.41h-32.01v35.12h25.19v9.34h-25.19v35.49h32.01v9.41Z"></path>
        <path d="m247.69,100.41h-20.89l-19.71-41.87h-8.15v41.87h-18.97V1.64h32.38c21.27,0,30.97,13.93,30.97,27.71,0,10.6-6.08,20.82-17.64,24.82l22.01,46.24ZM207.31,8.83h-8.37v42.76h8.37c12,0,16.6-8.97,16.6-21.41s-4.6-21.35-16.6-21.35Z"></path>
        <path d="m302.77,101.9c-10.19,0-23.92-2.95-32.19-13.88l10.85-10.48c4.5,8.71,12.62,17.2,23.11,17.2,8.12,0,15.28-5.46,15.28-15.8,0-7.24-4.87-16.32-15.8-19.27l-5.76-1.55c-12.55-3.4-25.4-7.97-25.4-26.28,0-20.6,15.36-31.67,31.75-31.67,9.6,0,19.49,3.77,26.95,11.66l-10.34,10.48c-4.95-9.3-13.36-14.03-20.6-14.03s-13.36,4.73-13.36,14.25c0,10.7,7.53,14.47,16.98,16.98l8.05,2.14c16.02,4.28,23.4,13.95,23.4,28.28,0,17.72-11.88,31.97-32.92,31.97Z"></path>
        <path d="m431.28,100.41h-20.75l-9.11-32.53h-26.75l-10.3,32.53h-9.41L387.12,1.64h14.67l29.49,98.77Zm-32.46-41.86l-9.56-34.16h-.81l-10.82,34.16h21.19Z"></path>
        <path d="m503.03,29.02c-.44-9.23-3.32-22.96-15.06-22.96-17.42,0-17.79,29.83-17.79,44.37v1.25c0,18.9,1.77,44.07,18.97,44.07,10.7,0,15.72-11.59,15.95-22.74h15.8c-.52,21.11-16.17,28.87-31.82,28.87-30.05,0-39.05-22.81-39.05-51.09S458.37,0,488.42,0c18.23,0,32.04,9.38,32.63,29.01h-18.02Z"></path>
        <path d="m600,100.41h-50.98V1.64h50.98v9.41h-32.01v35.12h25.19v9.34h-25.19v35.49h32.01v9.41Z"></path>
        </g>
    </g>
    </svg>